<?xml version="1.0" encoding="utf-8"?>
<!-- Generator: Adobe Illustrator 19.0.0, SVG Export Plug-In . SVG Version: 6.00 Build 0)  -->
<svg version="1.1" id="Capa_1" xmlns="http://www.w3.org/2000/svg" xmlns:xlink="http://www.w3.org/1999/xlink" x="0px" y="0px"
	 viewBox="0 0 480 480" style="enable-background:new 0 0 480 480;" xml:space="preserve">
<style type="text/css">
	.st0{fill:#010101;}
	.st1{fill:none;}
	.st2{font-family:'AccidentalPresidency';}
	.st3{font-size:44.6903px;}
	.st4{letter-spacing:2;}
</style>
<polygon id="XMLID_11_" class="st0" points="251.6,119.1 204.8,57.7 115.4,57.7 251.6,239.2 387.8,57.7 298.4,57.7 "/>
<polygon id="XMLID_10_" class="st0" points="324.9,273.1 301.2,240.8 253.7,296.6 324.8,392.9 375,327.2 375,477 460,477 460,212 
	375.2,212 "/>
<polyline id="XMLID_9_" class="st0" points="431,0 184.1,329.3 189.6,329.3 436.6,0 "/>
<polyline id="XMLID_8_" class="st0" points="140.4,387.3 72.3,478 77.9,478 145.9,387.3 "/>
<rect id="XMLID_23_" x="17.7" y="342.5" class="st1" width="234.6" height="58.7"/>
<text id="XMLID_6_" transform="matrix(1 0 0 1 17.6743 371.5215)" class="st0 st2 st3 st4">MONOCHROME</text>
<rect id="XMLID_21_" x="168.8" y="387.3" class="st1" width="234.6" height="58.7"/>
<text id="XMLID_4_" transform="matrix(1 0 0 1 168.8457 416.3965)" class="st0 st2 st3 st4">MEDIA</text>
</svg>
