<?xml version="1.0" encoding="utf-8"?>
<!-- Generator: Adobe Illustrator 19.0.0, SVG Export Plug-In . SVG Version: 6.00 Build 0)  -->
<svg version="1.1" id="Capa_1" xmlns="http://www.w3.org/2000/svg" xmlns:xlink="http://www.w3.org/1999/xlink" x="0px" y="0px"
	 viewBox="0 0 480 480" style="enable-background:new 0 0 480 480;" xml:space="preserve">
<style type="text/css">
	.st0{fill:#010101;}
	.st1{fill:none;}
	.st2{font-family:'AccidentalPresidency';}
	.st3{font-size:32px;}
	.st4{letter-spacing:1;}
</style>
<polygon class="st0" points="251.5,154 218,110 154,110 251.5,240 349,110 285,110 "/>
<polygon class="st0" points="304,264 287,241 253,281 304,350 340,303 340,410 401,410 401,220 340,220 "/>
<polyline class="st0" points="380,68.7 203.2,304.5 207.1,304.5 384,68.7 "/>
<polyline class="st0" points="171.9,346.1 123.1,411 127.1,411 175.8,346.1 "/>
<rect id="XMLID_2_" x="84" y="313.9" class="st1" width="168" height="42"/>
<text transform="matrix(1 0 0 1 83.9998 334.7236)" class="st0 st2 st3 st4">MONOCHROME</text>
<rect id="XMLID_1_" x="192.2" y="346.1" class="st1" width="168" height="42"/>
<text transform="matrix(1 0 0 1 192.2439 366.8555)" class="st0 st2 st3 st4">MEDIA</text>
</svg>
